<svg width="680" height="667" viewBox="0 0 680 667" fill="none" xmlns="http://www.w3.org/2000/svg">
<g opacity="0.7" filter="url(#filter0_d)">
<path d="M-516.79 -20.6088C-516.906 -19.6631 -516.811 -18.6777 -516.461 -17.7206L-516.415 -17.6139L-582.611 19.7931L-720.108 -60.4051C-720.051 -60.5468 -719.994 -60.6886 -719.949 -60.8327L-516.79 -20.6088ZM-507.784 59.1256C-508.096 59.1868 -508.407 59.2662 -508.716 59.3796C-509.817 59.7833 -510.728 60.4705 -511.411 61.3244L-581.024 20.7229L-515.652 -16.2146C-514.526 -14.6633 -512.743 -13.7278 -510.848 -13.6677L-507.784 59.1256ZM-330.785 95.7331C-330.817 96.5189 -330.7 97.3241 -330.412 98.1099C-330.235 98.5964 -329.996 99.041 -329.718 99.4503L-425.595 184.451L-502.509 69.8463C-501.588 69.0401 -500.935 67.9843 -500.618 66.8231L-330.785 95.7331ZM-334.702 181.244C-335.37 181.259 -336.045 181.374 -336.708 181.617C-339.919 182.795 -341.566 186.352 -340.389 189.562C-340.118 190.301 -339.716 190.953 -339.225 191.511L-380.589 242.98L-380.717 242.912L-326.077 101.99L-326.058 101.994L-334.702 181.244ZM257.011 60.6632L282.787 109.745C281.273 110.808 280.329 112.489 280.178 114.301L136.828 124.083C136.767 123.816 136.697 123.55 136.601 123.287L257.011 60.6632ZM350.003 31.5786C350.423 31.8054 350.865 31.9845 351.324 32.1104L330.373 125.807L292.488 115.534C292.6 114.597 292.503 113.621 292.157 112.674C291.815 111.743 291.269 110.949 290.595 110.31L350.003 31.5786ZM590.042 17.5114C590.067 18.1407 590.187 18.7758 590.415 19.3972C590.688 20.1411 591.094 20.7977 591.587 21.3579L570.753 45.1558L485.494 8.51081C485.527 8.39631 485.557 8.27955 485.583 8.16157L590.042 17.5114ZM618.46 65.6618L572.292 45.8181L592.788 22.4057C594.375 23.4671 596.427 23.7869 598.357 23.0804L619.74 64.1514C619.231 64.588 618.798 65.0971 618.46 65.6618ZM534.429 92.373L534.428 92.3685C534.156 91.6257 533.75 90.9702 533.257 90.4089L571.189 47.0791L617.824 67.1247C617.646 67.7359 617.559 68.3777 617.577 69.0286L534.219 91.5985L534.429 92.373ZM521.174 182.57C520.581 182.604 519.983 182.723 519.397 182.938C517.979 183.458 516.867 184.442 516.167 185.656L474.571 168.344L525.104 99.5943C525.706 100.008 526.375 100.317 527.084 100.498L521.174 182.57ZM398.111 273.127C398.009 273.013 397.901 272.907 397.791 272.801L473.601 169.666L515.558 187.128C515.232 188.325 515.256 189.63 515.716 190.883C515.806 191.127 515.913 191.358 516.029 191.584L398.111 273.127ZM307.715 276.531C307.657 276.085 307.552 275.64 307.393 275.2C307.254 274.824 307.082 274.474 306.883 274.144L329.242 256.421L387.449 276.067C387.423 276.204 387.397 276.342 387.378 276.481L307.715 276.531ZM-138.657 376.502L8.26688 337.653L103.792 425.082C103.463 425.554 103.198 426.068 103.01 426.612L-138.657 376.502ZM-245.48 388.719C-245.534 388.497 -245.6 388.276 -245.679 388.055C-246.05 387.047 -246.653 386.194 -247.409 385.533L-209.893 329.663L-153.212 375.489C-153.785 376.422 -154.105 377.498 -154.126 378.61L-245.48 388.719ZM-343.211 455.171L-256.07 394.353C-255.603 394.867 -255.055 395.29 -254.456 395.616L-296.397 503.66L-343.211 455.171ZM-428.584 516.631C-428.641 516.374 -428.711 516.116 -428.804 515.861C-428.897 515.608 -429.01 515.369 -429.131 515.136L-344.534 456.094L-297.83 504.47L-428.584 516.631ZM-465.524 606.505C-466.097 605.785 -466.817 605.212 -467.624 604.814L-439.287 522.051C-437.651 523.932 -434.966 524.715 -432.485 523.805C-430.054 522.914 -428.521 520.656 -428.432 518.218L-299.493 506.226L-465.524 606.505ZM-570.182 584.346C-570.08 583.501 -570.148 582.623 -570.421 581.764L-525.39 560.909L-475.425 606.794C-475.706 607.196 -475.936 607.631 -476.117 608.085L-570.182 584.346ZM-593.497 501.186L-593.452 501.172C-592.76 500.918 -592.148 500.544 -591.604 500.095L-526.66 559.741L-571.09 580.314C-572.326 578.353 -574.56 577.257 -576.85 577.455L-593.497 501.186ZM-706.919 256.821C-706.511 256.118 -706.239 255.338 -706.125 254.526L-609.884 254.938L-616.982 321.075C-617.651 321.089 -618.32 321.207 -618.978 321.449C-619.851 321.768 -620.6 322.267 -621.212 322.885L-706.919 256.821ZM-703.914 95.7025C-703.37 95.6583 -702.826 95.5472 -702.281 95.3498C-701.386 95.0198 -700.614 94.4982 -699.991 93.8552L-633.799 143.522L-709.323 248.263C-709.902 247.95 -710.525 247.731 -711.172 247.614L-703.914 95.7025ZM-466.359 220.589C-467.622 219.492 -469.3 218.939 -471.002 219.1L-504.548 71.0336L-504.452 71.0041C-504.237 70.9259 -504.031 70.8352 -503.832 70.7354L-426.799 185.518L-466.359 220.589ZM-387.757 243.692C-388.482 244.328 -389.039 245.118 -389.398 245.995L-464.287 226.066C-464.16 225.106 -464.254 224.1 -464.611 223.127C-464.789 222.64 -465.028 222.195 -465.305 221.785L-425.904 186.853L-387.757 243.692ZM-337.443 192.909L-353.944 249.464L-377.559 247.399C-377.622 247.002 -377.721 246.604 -377.865 246.21C-378.189 245.328 -378.697 244.57 -379.324 243.949L-338.026 192.564C-337.838 192.689 -337.644 192.805 -337.443 192.909ZM-129.951 133.717L-146.836 227.827C-147.64 227.788 -148.466 227.907 -149.268 228.199C-151.146 228.89 -152.484 230.395 -153.04 232.167L-328.47 188.434C-328.343 187.661 -328.362 186.86 -328.544 186.063L-133.758 130.274C-133.025 131.974 -131.608 133.19 -129.951 133.717ZM-117.522 140.75L-123.791 132.279C-122.078 130.629 -121.398 128.065 -122.269 125.689C-122.732 124.427 -123.565 123.412 -124.597 122.71L-88.1769 50.878L-117.522 140.75ZM0.229195 136.616L-65.251 202.729C-66.2591 201.962 -67.4872 201.512 -68.7674 201.463L-82.8528 47.3196C-82.592 47.2606 -82.3312 47.1903 -82.0726 47.095C-81.5748 46.9136 -81.1201 46.6675 -80.7028 46.3806L0.229195 136.616ZM41.3897 92.4513C41.6165 93.0693 41.9329 93.6273 42.3162 94.1217L1.35181 135.481L-79.5132 45.3203C-79.2093 44.9676 -78.953 44.5821 -78.7376 44.1739L41.1742 88.9211C40.9111 90.0552 40.9587 91.2765 41.3897 92.4513ZM124.974 127.545C125.26 128.324 125.688 129.01 126.217 129.586L64.4937 198.062C63.4821 197.365 62.2744 196.977 61.0259 196.967L48.7379 96.3182C48.9375 96.266 49.1359 96.2048 49.3344 96.1322C50.7451 95.6151 51.8541 94.6365 52.5549 93.4322L124.823 123.772C124.49 124.974 124.512 126.284 124.974 127.545ZM280.532 116.938C280.914 117.98 281.549 118.853 282.339 119.523L234.115 196.818L136.418 127.98C136.747 127.259 136.939 126.474 136.973 125.67L280.255 115.892C280.317 116.242 280.406 116.593 280.532 116.938ZM304.63 240.924C304.435 240.906 304.24 240.898 304.044 240.898L298.462 199.322L287.923 120.791C288.107 120.741 288.293 120.685 288.476 120.618C290.201 119.986 291.468 118.662 292.096 117.079L330.025 127.362L304.63 240.924ZM355.092 31.9573C355.691 31.7373 356.236 31.4357 356.719 31.0672L446.334 154.718C445.695 155.321 445.204 156.05 444.872 156.848L331.914 126.224L352.909 32.3316C353.634 32.3361 354.371 32.2215 355.092 31.9573ZM473.471 7.99153C473.534 8.31245 473.615 8.63447 473.731 8.95314C474.447 10.9025 476.042 12.2723 477.902 12.786L467.105 68.9913L359.117 26.7398C359.159 26.3043 359.156 25.8644 359.104 25.421L385.976 21.3261L473.471 7.99153ZM456.553 160.843C456.878 159.647 456.855 158.343 456.396 157.09C456.236 156.658 456.032 156.255 455.792 155.882L523.77 98.7211L473.056 167.713L456.553 160.843ZM448.629 165.094C449.914 165.521 451.345 165.536 452.715 165.035C454.132 164.514 455.242 163.53 455.942 162.317L472.086 169.035L398.002 269.824L448.629 165.094ZM310.136 248.29C310.351 247.211 310.289 246.062 309.883 244.953C309.838 244.836 309.787 244.727 309.739 244.614L440.496 166.199L328.93 254.634L310.136 248.29ZM302.876 271.284L304.359 253.269C304.974 253.241 305.593 253.12 306.202 252.898C307.763 252.325 308.951 251.186 309.628 249.802L327.443 255.814L305.89 272.897C305.054 272.086 304.008 271.528 302.876 271.284ZM217.19 236.618L297.884 247.086C297.884 247.793 297.999 248.512 298.257 249.217C299.016 251.286 300.764 252.7 302.771 253.132L301.287 271.147C300.675 271.176 300.054 271.297 299.447 271.52C298.12 272.005 297.065 272.902 296.361 274.011L217.099 236.917L217.19 236.618ZM107.821 422.537L77.8441 324.74C80.7675 323.414 82.2202 320.04 81.0976 316.977C81.0443 316.834 80.9819 316.698 80.9207 316.561L206.408 238.944C206.767 239.385 207.179 239.772 207.634 240.092L111.021 422.841C110.02 422.467 108.919 422.35 107.821 422.537ZM69.5592 321.447C70.6682 324.164 73.5055 325.691 76.3212 325.21L106.299 423.007C105.773 423.246 105.295 423.551 104.871 423.909L10.0995 337.169L69.5592 321.447ZM-40.3927 290.958C-40.1047 290.547 -39.87 290.103 -39.6896 289.637L69.1476 318.316C69.0783 318.838 69.0783 319.373 69.1486 319.907L8.70236 335.89L-40.3927 290.958ZM-142.835 375.236L-49.5973 292.004C-47.9462 293.487 -45.5535 294.033 -43.3252 293.216C-42.6267 292.96 -42.0086 292.586 -41.47 292.131L6.86978 336.375L-142.461 375.857C-142.573 375.642 -142.699 375.434 -142.835 375.236ZM-149.504 239.725C-148.96 239.952 -148.385 240.099 -147.792 240.164L-147.957 264.371L-148.697 372.586C-149.157 372.643 -149.618 372.747 -150.074 372.915C-150.897 373.216 -151.616 373.677 -152.213 374.247L-209 328.334L-149.504 239.725ZM-295.843 258.121C-295.248 257.152 -294.926 256.027 -294.929 254.87L-217.009 244.568L-194.126 241.543L-152.962 236.101L-152.949 236.144C-152.528 237.295 -151.796 238.24 -150.889 238.931L-210.245 327.327L-295.843 258.121ZM-252.857 384.154L-298.255 260.367C-297.73 260.095 -297.256 259.757 -296.842 259.362L-211.137 328.656L-248.735 384.65C-249.98 384.029 -251.43 383.828 -252.857 384.154ZM-364.956 432.647L-256.991 393.052L-344.331 454.009L-364.956 432.647ZM-430.259 513.604L-375.222 439.846C-373.699 440.701 -371.827 440.912 -370.059 440.265C-367.344 439.269 -365.753 436.57 -366.038 433.82L-345.654 454.933L-430.04 513.827L-430.259 513.604ZM-589.619 497.002L-440.802 517.927C-440.809 518.565 -440.717 519.21 -440.516 519.847L-525.095 559.015L-590.526 498.924C-590.118 498.34 -589.812 497.689 -589.619 497.002ZM-551.755 392.401C-551.245 392.214 -550.78 391.961 -550.349 391.666L-545.972 396.5L-589.483 481.651L-555.339 392.607C-554.193 392.886 -552.946 392.839 -551.755 392.401ZM-562.732 255.139C-562.675 255.595 -562.573 256.052 -562.403 256.5C-562.108 257.302 -561.666 258.006 -561.122 258.594L-613.546 322.025C-614.125 321.667 -614.737 321.4 -615.395 321.242L-608.285 254.944L-562.732 255.139ZM-599.632 174.252C-599.065 174.238 -598.487 174.145 -597.92 173.968L-559.852 249.107C-561.451 250.093 -562.483 251.741 -562.732 253.546L-608.115 253.352L-599.632 174.252ZM-706.454 251.572C-706.568 251.236 -706.726 250.922 -706.897 250.623L-604.168 172.416C-603.352 173.237 -602.331 173.815 -601.209 174.085L-609.714 253.346L-706.125 252.933C-706.182 252.478 -706.284 252.021 -706.454 251.572ZM-605.155 165.021C-606.017 166.545 -606.232 168.423 -605.575 170.198C-605.461 170.534 -605.302 170.848 -605.132 171.148L-707.861 249.354L-708.031 249.194L-632.529 144.479L-605.155 165.021ZM-599.133 98.1701C-598.566 98.4807 -597.943 98.6985 -597.296 98.8153L-600.426 161.916C-600.925 161.97 -601.413 162.075 -601.9 162.253C-602.796 162.583 -603.567 163.104 -604.191 163.747L-631.588 143.187L-599.133 98.1701ZM-698.301 90.5145L-602.354 93.3438C-602.297 93.8518 -602.195 94.3599 -602.002 94.8611C-601.662 95.8 -601.107 96.5995 -600.426 97.239L-632.87 142.23L-699.027 92.5829C-698.675 91.9433 -698.426 91.2436 -698.301 90.5145ZM-590.572 90.1493C-591.91 87.2395 -595.266 85.7948 -598.328 86.9152C-600.506 87.7146 -601.957 89.6118 -602.309 91.7506L-694.003 89.046L-515.546 66.8696L-590.572 90.1493ZM-563.209 126.334L-591.4 96.629C-590.288 95.266 -589.789 93.464 -590.095 91.6712L-512.307 67.5341C-512.087 68.0739 -511.801 68.5695 -511.456 69.0095L-563.209 126.334ZM-389.491 250.474C-389.443 250.605 -389.385 250.729 -389.329 250.854L-428.004 274.432L-465.863 229.441C-465.369 228.9 -464.979 228.279 -464.703 227.606L-389.814 247.535C-389.941 248.497 -389.847 249.501 -389.491 250.474ZM-377.117 328.892C-377.532 328.827 -377.956 328.801 -378.382 328.824L-382.213 254.356C-381.99 254.301 -381.767 254.236 -381.546 254.155C-379.259 253.317 -377.772 251.269 -377.527 249.001L-354.4 251.024L-377.117 328.892ZM-333.026 193.423L-304.589 249.767C-305.915 250.666 -306.82 252.032 -307.156 253.555L-352.324 249.604L-335.945 193.465C-335.006 193.678 -334.008 193.678 -333.026 193.423ZM-153.301 234.537L-257.404 248.3L-295.135 253.289C-295.184 253.109 -295.236 252.929 -295.302 252.752C-296.47 249.567 -299.978 247.924 -303.168 249.047L-331.545 192.821C-330.362 192.158 -329.46 191.145 -328.929 189.962L-153.322 233.737C-153.335 234.003 -153.324 234.269 -153.301 234.537ZM-73.2944 203.19C-74.7606 204.603 -75.4637 206.685 -75.0906 208.746L-141.388 231.731C-141.986 230.223 -143.111 229.077 -144.474 228.427L-116.966 144.179L-73.2944 203.19ZM56.2869 199.116C55.4648 200.072 54.9545 201.263 54.8252 202.523L-23.4588 204.653L-63.1225 205.733L-63.1894 205.517C-63.4162 204.899 -63.7325 204.34 -64.1158 203.848L1.29621 137.804L56.2869 199.116ZM128.638 131.215L105.409 211.769L67.1438 203.647C67.2152 202.782 67.1086 201.889 66.7911 201.021C66.5291 200.308 66.1436 199.676 65.6764 199.129L127.439 130.612C127.817 130.856 128.217 131.058 128.638 131.215ZM77.75 313.437L106.531 213.635L205.041 234.542C204.97 235.408 205.076 236.302 205.393 237.17C205.447 237.313 205.51 237.45 205.571 237.588L80.0826 315.205C79.451 314.428 78.6482 313.827 77.75 313.437ZM-39.6443 285.272C-39.7962 284.859 -39.9879 284.475 -40.2113 284.115L-5.09489 256.371L69.981 315.92C69.8166 316.194 69.6772 316.482 69.5569 316.776L-39.3097 288.089C-39.2054 287.165 -39.303 286.204 -39.6443 285.272ZM-256.791 386.99L-338.372 351.174L-302.633 260.885C-301.71 261.119 -300.724 261.138 -299.75 260.917L-254.353 384.701C-255.387 385.24 -256.217 386.04 -256.791 386.99ZM-366.707 431.592C-367.281 430.486 -368.155 429.616 -369.191 429.042L-338.958 352.657L-257.429 388.45C-257.718 389.437 -257.765 390.498 -257.527 391.551L-366.707 431.592ZM-510.217 330.041C-509.114 330.434 -507.896 330.518 -506.697 330.23L-437.568 512.111L-437.756 512.661C-437.891 512.741 -438.021 512.827 -438.15 512.916L-544.044 396.244L-510.217 330.041ZM-548.07 384.457C-548.41 383.536 -548.954 382.748 -549.612 382.115L-513.354 332.677L-545.189 394.982L-549.17 390.597C-547.775 388.953 -547.276 386.627 -548.07 384.457ZM-610.689 327.885L-555.826 326.346L-554.794 380.465C-555.202 380.526 -555.611 380.628 -556.019 380.776C-556.688 381.022 -557.278 381.376 -557.799 381.801L-611.834 330.891C-611.199 330.012 -610.802 328.973 -610.689 327.885ZM-553.207 249.192C-554.704 248.22 -556.586 247.902 -558.4 248.456L-587.805 190.41L-553.207 249.192ZM-594.586 171.45L-476.357 223.516C-476.72 224.744 -476.712 226.095 -476.237 227.391C-475.694 228.871 -474.641 230.014 -473.353 230.707L-506.691 318.192C-507.838 317.915 -509.075 317.963 -510.265 318.399L-510.555 318.523L-596.151 173.088C-595.527 172.637 -595.006 172.079 -594.586 171.45ZM-475.719 222.055L-593.894 170.015C-593.463 168.732 -593.452 167.302 -593.951 165.934C-594.223 165.213 -594.609 164.577 -595.085 164.027L-563.174 128.68L-475.224 221.358C-475.403 221.58 -475.571 221.811 -475.719 222.055ZM-503.309 320.337C-503.834 319.683 -504.481 319.152 -505.205 318.766L-471.865 231.278C-470.719 231.554 -469.482 231.508 -468.292 231.072C-467.858 230.912 -467.455 230.707 -467.082 230.467L-429.383 275.27L-503.309 320.337ZM-382.632 330.827C-383.375 331.639 -383.886 332.635 -384.117 333.707L-501.948 323.925C-501.976 323.311 -502.098 322.688 -502.32 322.079C-502.369 321.949 -502.425 321.825 -502.482 321.7L-428.343 276.504L-382.632 330.827ZM-306.927 257.016C-306.692 257.658 -306.357 258.235 -305.952 258.742L-374.666 329.846C-374.959 329.652 -375.266 329.483 -375.587 329.342L-352.78 251.165L-307.299 255.142C-307.274 255.767 -307.154 256.396 -306.927 257.016ZM-372.039 336.392C-371.778 335.262 -371.828 334.047 -372.258 332.877C-372.496 332.228 -372.835 331.645 -373.246 331.135L-304.792 259.861C-304.575 260.021 -304.349 260.164 -304.114 260.294L-339.832 350.532L-372.039 336.392ZM-371.758 428.28L-376.914 341.084C-376.587 341.022 -376.262 340.938 -375.939 340.822C-374.438 340.272 -373.285 339.199 -372.597 337.888L-340.418 352.015L-370.673 428.451C-371.026 428.361 -371.39 428.306 -371.758 428.28ZM-431.524 512.632C-431.664 512.55 -431.807 512.476 -431.953 512.407L-401.016 412.102L-377.457 431.207C-378.416 432.767 -378.684 434.731 -378.004 436.584C-377.671 437.489 -377.146 438.262 -376.498 438.892L-391.883 459.509L-431.524 512.632ZM-503.867 328.696L-402.349 411.02L-433.469 511.915C-434.266 511.764 -435.097 511.769 -435.925 511.948L-505.209 329.662C-504.713 329.397 -504.261 329.072 -503.867 328.696ZM-383.883 337.141C-383.29 338.758 -382.093 339.976 -380.641 340.639L-401.844 409.379L-502.865 327.456C-502.498 326.858 -502.235 326.201 -502.086 325.514L-384.255 335.296C-384.227 335.91 -384.106 336.532 -383.883 337.141ZM-378.543 341.177L-373.351 428.377C-373.676 428.441 -374.002 428.521 -374.323 428.639C-375.144 428.941 -375.86 429.399 -376.456 429.966L-400.509 410.461L-379.117 341.106C-378.928 341.138 -378.736 341.163 -378.543 341.177ZM-552.254 258.776C-550.973 257.518 -550.292 255.745 -550.417 253.931L-520.139 305.376L-552.254 258.776ZM-554.465 260.182C-554.125 260.061 -553.819 259.908 -553.524 259.739L-512.271 319.61C-513.416 320.64 -514.132 322.064 -514.286 323.587L-554.273 324.709L-555.497 260.457C-555.146 260.393 -554.806 260.307 -554.465 260.182ZM-553.207 380.44L-554.239 326.302L-514.246 325.181C-514.184 325.569 -514.087 325.96 -513.946 326.343C-513.608 327.265 -513.069 328.052 -512.403 328.687L-550.905 381.171C-551.608 380.78 -552.39 380.532 -553.207 380.44ZM-74.6086 210.266C-73.8307 211.934 -72.3838 213.111 -70.7112 213.593L-93.3637 261.484L-141.458 236.465C-141.032 235.478 -140.862 234.382 -140.994 233.28L-74.6086 210.266ZM56.6589 207.581C57.7997 208.691 59.334 209.328 60.9397 209.339L66.2683 252.535L73.7425 313.114C73.544 313.165 73.3479 313.226 73.1528 313.297C72.3091 313.607 71.5766 314.083 70.9721 314.672L-3.8101 255.356L56.6589 207.581ZM-62.8707 208.509C-62.8152 208.117 -62.7981 207.72 -62.8185 207.319L54.8626 204.115C54.925 204.508 55.0236 204.898 55.1654 205.285C55.3015 205.655 55.4727 206.004 55.6689 206.331L-5.09263 254.339L-62.8707 208.509ZM-46.2464 281.265L-64.3687 211.757C-63.9469 211.279 -63.6055 210.741 -63.3481 210.163L-6.37748 255.354L-41.2284 282.888C-42.5575 281.644 -44.3946 281.026 -46.2464 281.265ZM-91.9485 262.22L-69.06 213.834C-68.3343 213.842 -67.5926 213.727 -66.8703 213.462C-66.4598 213.311 -66.0754 213.121 -65.7193 212.897L-47.7886 281.675C-48.9056 282.128 -49.8252 282.871 -50.4841 283.79L-91.9485 262.22ZM76.2191 312.99C75.9243 312.945 75.6261 312.925 75.3244 312.924L67.7493 251.528L62.5205 209.148C62.7178 209.098 62.9151 209.037 63.109 208.967C64.9143 208.304 66.2263 206.888 66.8183 205.208L104.967 213.304L76.2191 312.99ZM132.919 131.226C133.345 131.068 133.742 130.868 134.109 130.634L206.946 230.548C206.23 231.227 205.69 232.066 205.366 232.985L106.972 212.1L130.196 131.569C131.091 131.657 132.017 131.556 132.919 131.226ZM-383.801 254.528L-379.962 329.121L-380.203 329.196C-380.636 329.355 -381.038 329.56 -381.411 329.799L-426.967 275.665L-388.501 252.217C-387.355 253.646 -385.625 254.492 -383.801 254.528ZM-594.064 98.5409C-593.509 98.3379 -592.998 98.06 -592.545 97.7266L-564.274 127.52L-596.264 162.964C-597.035 162.439 -597.909 162.089 -598.827 161.947L-595.697 98.8958C-595.153 98.8516 -594.609 98.7393 -594.064 98.5409ZM-611.029 325.13C-611.324 324.327 -611.766 323.622 -612.322 323.034L-559.886 259.604C-559.047 260.132 -558.083 260.456 -557.085 260.536L-555.86 324.753L-610.734 326.292C-610.791 325.902 -610.893 325.514 -611.029 325.13ZM-589.778 493.227C-590.231 491.973 -591.059 490.961 -592.091 490.259L-544.826 397.762L-439.33 513.985C-439.917 514.673 -440.341 515.483 -440.581 516.35L-589.404 495.425C-589.392 494.694 -589.506 493.953 -589.778 493.227ZM-146.371 265.485L-146.199 240.133C-145.798 240.071 -145.399 239.97 -145.005 239.825C-143.885 239.414 -142.961 238.71 -142.275 237.836L-94.0464 262.925L-146.039 372.84C-146.385 372.728 -146.74 372.644 -147.101 372.594L-146.371 265.485ZM-144.599 373.524L-92.63 263.663L-51.2359 285.196C-51.7519 286.543 -51.8052 288.074 -51.2699 289.535C-51.1032 289.988 -50.8867 290.406 -50.6327 290.793L-143.892 374.045C-144.116 373.853 -144.353 373.68 -144.599 373.524ZM298.597 244.204C298.38 244.617 298.207 245.051 298.086 245.505L217.392 235.039C217.392 234.332 217.278 233.612 217.019 232.908C216.625 231.829 215.958 230.934 215.13 230.257L234.572 199.092L298.597 244.204ZM444.77 161.354C444.812 161.471 444.865 161.581 444.914 161.692L397.639 190.043L308.923 243.244C308.203 242.334 307.252 241.657 306.186 241.27L331.565 127.78L444.45 158.385C444.315 159.355 444.409 160.371 444.77 161.354ZM452.522 153.348L468.308 71.173L522.765 92.4796C522.313 93.7803 522.292 95.2387 522.802 96.6323C522.878 96.8399 522.966 97.0394 523.061 97.2333L454.766 154.663C454.117 154.068 453.352 153.622 452.522 153.348ZM481.676 12.6341C481.941 12.5366 482.192 12.4175 482.436 12.2893L525.043 89.4508C524.422 89.8907 523.897 90.4338 523.483 91.0496L468.613 69.5809L479.483 13.0072C480.211 13.0139 480.951 12.8994 481.676 12.6341ZM358.757 28.3104L466.799 70.5822L450.957 153.044C450.13 152.993 449.279 153.105 448.451 153.409C448.162 153.516 447.891 153.646 447.629 153.789L357.857 29.9241C358.236 29.432 358.539 28.8876 358.757 28.3104ZM286.341 120.99L296.946 200.001L302.463 241.109C302.287 241.156 302.112 241.207 301.938 241.272C300.976 241.623 300.16 242.193 299.512 242.898L235.418 197.737L283.673 120.388C284.498 120.783 285.409 120.99 286.341 120.99ZM233.268 198.172L213.779 229.409C212.348 228.754 210.669 228.641 209.074 229.227C208.782 229.333 208.505 229.467 208.238 229.614L135.334 129.608L135.571 129.333L233.268 198.172ZM47.1549 96.5054L59.4428 197.155C59.2432 197.207 59.0448 197.267 58.8452 197.341C58.3485 197.522 57.8938 197.767 57.4765 198.054L2.41889 136.669L43.4524 95.2398C44.5093 96.0438 45.8088 96.4952 47.1549 96.5054ZM-84.4392 47.4681L-70.3539 201.613C-70.6148 201.672 -70.8755 201.742 -71.1329 201.836C-71.4426 201.95 -71.7317 202.091 -72.0107 202.246L-116.359 142.322L-85.351 47.3615C-85.0516 47.417 -84.7465 47.4579 -84.4392 47.4681ZM-125.95 133.633C-125.643 133.52 -125.354 133.378 -125.075 133.223L-118.129 142.609L-144.317 222.814L-128.384 134.005C-127.58 134.045 -126.754 133.928 -125.95 133.633ZM-506.11 71.3613L-472.557 219.447C-473.112 219.65 -473.615 219.928 -474.071 220.259L-562.108 127.494L-510.318 70.1253C-509.127 71.0246 -507.633 71.4781 -506.11 71.3613ZM-472.497 604.546C-473.192 604.801 -473.808 605.172 -474.344 605.622L-523.825 560.182L-440.875 521.769L-469.132 604.299C-470.22 604.076 -471.378 604.136 -472.497 604.546ZM330.731 255.242L446.27 163.656C446.556 163.934 446.864 164.181 447.196 164.397L395.469 271.402C394.184 270.973 392.754 270.958 391.384 271.46C389.822 272.034 388.634 273.171 387.958 274.556L330.731 255.242ZM569.65 46.418L532.056 89.3611C530.467 88.2997 528.414 87.9799 526.483 88.6875L526.45 88.7023L483.748 11.3662C484.19 10.958 484.566 10.4885 484.869 9.97822L569.65 46.418ZM-327.56 101.409L-382.202 242.329C-383.357 242.045 -384.608 242.088 -385.809 242.529C-386.027 242.609 -386.233 242.702 -386.436 242.802L-424.7 185.787L-328.665 100.647C-328.325 100.942 -327.953 101.194 -327.56 101.409ZM-512.241 62.6851C-512.551 63.3859 -512.736 64.1424 -512.771 64.918L-698.426 87.9891C-698.471 87.7929 -698.539 87.599 -698.607 87.4051L-698.687 87.2134L-582.623 21.6312L-512.241 62.6851ZM-724.167 -56.8421C-724.009 -56.8875 -723.839 -56.9351 -723.68 -56.994C-722.534 -57.4125 -721.605 -58.1338 -720.913 -59.0285L-584.221 20.7013L-699.469 85.8232C-700.648 84.2458 -702.519 83.3307 -704.481 83.351L-724.167 -56.8421ZM-731.618 -60.6751C-730.699 -58.1474 -728.295 -56.5949 -725.744 -56.6221L-706.058 83.5722C-706.228 83.6175 -706.386 83.6652 -706.545 83.7242C-709.766 84.9013 -711.41 88.4586 -710.231 91.6689C-709.448 93.8099 -707.6 95.2489 -705.513 95.6254L-712.771 247.538C-713.315 247.583 -713.859 247.694 -714.392 247.891C-717.601 249.069 -719.257 252.624 -718.078 255.835C-716.898 259.045 -713.338 260.694 -710.128 259.517C-709.255 259.196 -708.507 258.697 -707.895 258.08L-622.187 324.143C-623.083 325.681 -623.321 327.591 -622.652 329.393C-621.484 332.603 -617.923 334.251 -614.714 333.073C-614.045 332.828 -613.444 332.474 -612.923 332.047L-558.899 382.957C-560.067 384.57 -560.43 386.713 -559.693 388.72C-559.16 390.198 -558.105 391.338 -556.824 392.03L-594.132 489.341C-595.289 489.063 -596.525 489.108 -597.716 489.546C-600.925 490.723 -602.581 494.28 -601.401 497.491C-600.415 500.171 -597.772 501.757 -595.062 501.522L-578.415 577.792L-578.461 577.804C-581.67 578.982 -583.314 582.539 -582.135 585.749C-580.955 588.96 -577.406 590.607 -574.197 589.43C-572.462 588.797 -571.203 587.475 -570.568 585.891L-476.509 609.63C-476.621 610.568 -476.526 611.543 -476.178 612.491C-475.001 615.701 -471.443 617.349 -468.233 616.171C-465.023 614.994 -463.375 611.438 -464.552 608.227C-464.598 608.105 -464.653 607.988 -464.704 607.871L-296.236 506.121L-295.812 506.56L-295.46 505.651L-292.717 503.994L-294.897 504.197L-252.972 396.2C-251.815 396.486 -250.563 396.442 -249.36 395.999C-246.893 395.095 -245.355 392.782 -245.307 390.305L-153.954 380.194C-153.9 380.417 -153.834 380.638 -153.754 380.858C-152.575 384.069 -149.019 385.718 -145.81 384.54C-142.885 383.467 -141.265 380.42 -141.888 377.458L102.69 428.172C102.624 429.028 102.731 429.91 103.046 430.769C104.223 433.979 107.78 435.627 110.99 434.45C114.2 433.273 115.848 429.715 114.671 426.505C114.221 425.279 113.422 424.283 112.431 423.584L209.044 240.835C210.381 241.334 211.893 241.382 213.338 240.852C214.666 240.365 215.721 239.468 216.425 238.36L295.685 275.454C295.281 276.719 295.274 278.121 295.767 279.464C296.944 282.674 300.5 284.323 303.71 283.146C305.952 282.322 307.428 280.339 307.716 278.125L387.38 278.073C387.44 278.519 387.542 278.965 387.703 279.405C388.881 282.615 392.436 284.263 395.647 283.086C398.858 281.908 400.506 278.351 399.329 275.141C399.238 274.897 399.131 274.665 399.015 274.439L516.934 192.896C518.577 194.716 521.218 195.459 523.661 194.563C526.871 193.386 528.519 189.828 527.342 186.618C526.574 184.528 524.797 183.107 522.764 182.691L528.668 100.686C529.359 100.681 530.06 100.565 530.747 100.313C533.703 99.2291 535.329 96.1254 534.648 93.135L617.834 70.6106C617.87 70.7353 617.904 70.86 617.949 70.9848C619.127 74.1951 622.684 75.8428 625.893 74.6657C629.104 73.4875 630.753 69.9302 629.574 66.721C628.397 63.5107 624.84 61.8629 621.63 63.04C621.441 63.1092 621.259 63.1886 621.081 63.2737L599.767 22.3376C602.018 20.7682 603.03 17.8323 602.04 15.1334C600.863 11.923 597.306 10.2765 594.096 11.4536C592.042 12.2065 590.631 13.937 590.189 15.926L485.73 6.57514C485.704 5.94691 485.585 5.31184 485.357 4.68928C484.18 1.48011 480.622 -0.168691 477.412 1.00837C475.048 1.87587 473.536 4.03498 473.371 6.39485L455.86 9.06196L358.711 23.8685C357.48 20.7569 353.988 19.1727 350.828 20.3328C347.617 21.5098 345.97 25.0672 347.147 28.2775C347.489 29.2096 348.037 30.0057 348.714 30.643L289.306 109.376C287.796 108.552 285.954 108.354 284.213 108.993L284.196 109.001L257.684 58.5166L135.86 121.874C134.292 119.622 131.354 118.61 128.655 119.6C127.244 120.117 126.136 121.095 125.434 122.301L53.1673 91.9603C53.4984 90.7583 53.4769 89.4473 53.0153 88.1886C51.8383 84.9783 48.2809 83.3295 45.0706 84.5066C43.5748 85.0555 42.425 86.1236 41.7355 87.43L-78.1762 42.6827C-77.912 41.5475 -77.9608 40.3274 -78.3917 39.1503C-79.5687 35.9411 -83.1261 34.2934 -86.3364 35.4704C-89.5468 36.6476 -91.1945 40.2049 -90.0173 43.4152C-89.5547 44.6762 -88.7212 45.6912 -87.6893 46.3931L-126.017 121.984C-127.329 121.519 -128.806 121.491 -130.214 122.008C-133.026 123.038 -134.639 125.894 -134.206 128.745L-328.982 184.531L-328.764 185.298C-329.502 183.283 -331.179 181.886 -333.118 181.413L-324.474 102.163C-323.806 102.149 -323.13 102.034 -322.469 101.791C-319.258 100.614 -317.611 97.0565 -318.788 93.8461C-319.965 90.6358 -323.522 88.9881 -326.733 90.1652C-328.622 90.8581 -329.963 92.3776 -330.513 94.1625L-500.399 65.2423C-500.393 64.5177 -500.508 63.7806 -500.772 63.0594C-501.643 60.6848 -503.82 59.1676 -506.194 59.0156L-509.26 -13.8242C-509.01 -13.8809 -508.762 -13.9501 -508.517 -14.0397C-505.307 -15.2167 -503.658 -18.774 -504.835 -21.9844C-506.012 -25.1947 -509.57 -26.8425 -512.78 -25.6653C-514.494 -25.036 -515.757 -23.7262 -516.388 -22.1545L-719.631 -62.3976C-719.575 -63.2356 -719.688 -64.0986 -719.994 -64.9389C-721.174 -68.1492 -724.734 -69.7968 -727.944 -68.6198C-731.153 -67.4427 -732.797 -63.8854 -731.618 -60.6751Z" fill="#313840"/>
</g>
<defs>
<filter id="filter0_d" x="-782" y="-119" width="1461.95" height="785.552" filterUnits="userSpaceOnUse" color-interpolation-filters="sRGB">
<feFlood flood-opacity="0" result="BackgroundImageFix"/>
<feColorMatrix in="SourceAlpha" type="matrix" values="0 0 0 0 0 0 0 0 0 0 0 0 0 0 0 0 0 0 127 0"/>
<feOffset/>
<feGaussianBlur stdDeviation="25"/>
<feColorMatrix type="matrix" values="0 0 0 0 0 0 0 0 0 0 0 0 0 0 0 0 0 0 0.25 0"/>
<feBlend mode="normal" in2="BackgroundImageFix" result="effect1_dropShadow"/>
<feBlend mode="normal" in="SourceGraphic" in2="effect1_dropShadow" result="shape"/>
</filter>
</defs>
</svg>
