<svg width="672" height="786" viewBox="0 0 672 786" fill="none" xmlns="http://www.w3.org/2000/svg">
<g opacity="0.7" filter="url(#filter0_d)">
<path d="M265.21 98.3914C265.093 99.3372 265.188 100.323 265.539 101.28L265.584 101.386L199.388 138.793L61.8918 58.5951C61.9484 58.4534 62.0052 58.3116 62.0506 58.1676L265.21 98.3914ZM274.216 178.126C273.903 178.187 273.592 178.266 273.284 178.38C272.183 178.784 271.271 179.471 270.588 180.325L200.976 139.723L266.347 102.786C267.473 104.337 269.257 105.272 271.152 105.333L274.216 178.126ZM451.214 214.733C451.182 215.519 451.299 216.324 451.587 217.11C451.764 217.597 452.003 218.041 452.281 218.451L356.404 303.451L279.49 188.847C280.411 188.04 281.064 186.985 281.382 185.823L451.214 214.733ZM447.297 300.244C446.629 300.259 445.955 300.375 445.291 300.617C442.081 301.796 440.433 305.352 441.61 308.562C441.881 309.301 442.284 309.953 442.775 310.511L401.41 361.98L401.282 361.912L455.922 220.991L455.942 220.994L447.297 300.244ZM1039.01 179.663L1064.79 228.745C1063.27 229.809 1062.33 231.489 1062.18 233.301L918.827 243.083C918.767 242.817 918.697 242.55 918.6 242.287L1039.01 179.663ZM1132 150.579C1132.42 150.806 1132.86 150.985 1133.32 151.111L1112.37 244.807L1074.49 234.534C1074.6 233.597 1074.5 232.621 1074.16 231.674C1073.81 230.743 1073.27 229.949 1072.59 229.311L1132 150.579ZM1372.04 136.512C1372.07 137.141 1372.19 137.776 1372.41 138.397C1372.69 139.141 1373.09 139.798 1373.59 140.358L1352.75 164.156L1267.49 127.511C1267.53 127.396 1267.56 127.28 1267.58 127.162L1372.04 136.512ZM1400.46 184.662L1354.29 164.818L1374.79 141.406C1376.37 142.467 1378.43 142.787 1380.36 142.081L1401.74 183.152C1401.23 183.588 1400.8 184.097 1400.46 184.662ZM1316.43 211.373L1316.43 211.369C1316.16 210.626 1315.75 209.971 1315.26 209.409L1353.19 166.079L1399.82 186.125C1399.65 186.736 1399.56 187.378 1399.58 188.029L1316.22 210.599L1316.43 211.373ZM1303.17 301.57C1302.58 301.604 1301.98 301.723 1301.4 301.938C1299.98 302.458 1298.87 303.442 1298.17 304.657L1256.57 287.344L1307.1 218.595C1307.71 219.008 1308.37 219.317 1309.08 219.498L1303.17 301.57ZM1180.11 392.127C1180.01 392.014 1179.9 391.907 1179.79 391.802L1255.6 288.666L1297.56 306.129C1297.23 307.325 1297.26 308.63 1297.72 309.883C1297.81 310.127 1297.91 310.358 1298.03 310.584L1180.11 392.127ZM1089.71 395.531C1089.66 395.086 1089.55 394.64 1089.39 394.2C1089.25 393.825 1089.08 393.474 1088.88 393.144L1111.24 375.421L1169.45 395.067C1169.42 395.205 1169.4 395.342 1169.38 395.481L1089.71 395.531ZM643.343 495.502L790.266 456.654L885.792 544.082C885.463 544.554 885.197 545.069 885.009 545.612L643.343 495.502ZM536.52 507.719C536.465 507.497 536.4 507.276 536.32 507.055C535.949 506.047 535.346 505.194 534.591 504.533L572.107 448.663L628.787 494.489C628.214 495.422 627.895 496.499 627.873 497.61L536.52 507.719ZM438.789 574.171L525.929 513.353C526.397 513.867 526.944 514.29 527.543 514.616L485.602 622.66L438.789 574.171ZM353.415 635.632C353.359 635.374 353.288 635.117 353.195 634.862C353.102 634.609 352.99 634.369 352.869 634.136L437.466 575.094L484.169 623.471L353.415 635.632ZM316.475 725.505C315.903 724.785 315.183 724.212 314.375 723.814L342.713 641.051C344.349 642.932 347.033 643.716 349.514 642.805C351.946 641.914 353.479 639.656 353.567 637.218L482.507 625.226L316.475 725.505ZM211.817 703.347C211.919 702.501 211.851 701.623 211.579 700.765L256.61 679.909L306.574 725.794C306.293 726.197 306.063 726.631 305.883 727.086L211.817 703.347ZM188.502 620.187L188.548 620.172C189.239 619.918 189.852 619.545 190.396 619.096L255.34 678.741L210.91 699.314C209.674 697.354 207.44 696.257 205.149 696.455L188.502 620.187ZM75.0802 375.821C75.4884 375.118 75.7607 374.338 75.8741 373.526L172.116 373.938L165.017 440.076C164.348 440.089 163.679 440.207 163.021 440.449C162.148 440.769 161.4 441.268 160.787 441.886L75.0802 375.821ZM78.0853 214.703C78.6296 214.659 79.1739 214.547 79.7182 214.35C80.6141 214.02 81.3852 213.498 82.0089 212.855L148.2 262.522L72.6761 367.263C72.0977 366.95 71.4741 366.731 70.8277 366.615L78.0853 214.703ZM315.641 339.589C314.378 338.493 312.699 337.939 310.997 338.1L277.451 190.034L277.548 190.004C277.762 189.926 277.968 189.835 278.168 189.736L355.2 304.518L315.641 339.589ZM394.242 362.692C393.518 363.328 392.961 364.119 392.601 364.995L317.713 345.066C317.84 344.106 317.745 343.1 317.388 342.127C317.21 341.641 316.972 341.195 316.694 340.786L356.096 305.853L394.242 362.692ZM444.556 311.91L428.056 368.464L404.44 366.399C404.378 366.002 404.278 365.604 404.134 365.211C403.811 364.328 403.303 363.57 402.676 362.95L443.974 311.564C444.162 311.69 444.356 311.805 444.556 311.91ZM652.049 252.718L635.163 346.828C634.359 346.788 633.534 346.907 632.731 347.199C630.853 347.89 629.515 349.395 628.959 351.167L453.53 307.434C453.657 306.662 453.637 305.86 453.456 305.064L648.242 249.275C648.974 250.975 650.392 252.19 652.049 252.718ZM664.477 259.751L658.208 251.28C659.922 249.63 660.601 247.066 659.73 244.689C659.268 243.427 658.434 242.412 657.402 241.71L693.823 169.878L664.477 259.751ZM782.229 255.616L716.749 321.729C715.74 320.962 714.512 320.512 713.232 320.463L699.147 166.32C699.408 166.261 699.668 166.191 699.927 166.095C700.425 165.914 700.879 165.668 701.297 165.381L782.229 255.616ZM823.389 211.452C823.616 212.07 823.932 212.627 824.316 213.122L783.351 254.481L702.486 164.321C702.79 163.968 703.047 163.582 703.262 163.174L823.174 207.921C822.911 209.055 822.958 210.277 823.389 211.452ZM906.973 246.545C907.259 247.324 907.688 248.01 908.216 248.586L846.493 317.063C845.482 316.365 844.274 315.977 843.025 315.967L830.737 215.318C830.937 215.266 831.136 215.205 831.334 215.132C832.745 214.615 833.854 213.637 834.554 212.432L906.823 242.772C906.489 243.974 906.512 245.284 906.973 246.545ZM1062.53 235.938C1062.91 236.98 1063.55 237.853 1064.34 238.523L1016.11 315.818L918.418 246.981C918.747 246.259 918.938 245.475 918.972 244.671L1062.25 234.892C1062.32 235.243 1062.41 235.593 1062.53 235.938ZM1086.63 359.924C1086.43 359.906 1086.24 359.898 1086.04 359.898L1080.46 318.322L1069.92 239.791C1070.11 239.741 1070.29 239.686 1070.48 239.619C1072.2 238.986 1073.47 237.663 1074.1 236.08L1112.02 246.363L1086.63 359.924ZM1137.09 150.958C1137.69 150.738 1138.24 150.436 1138.72 150.067L1228.33 273.718C1227.69 274.321 1227.2 275.05 1226.87 275.849L1113.91 245.224L1134.91 151.332C1135.63 151.336 1136.37 151.222 1137.09 150.958ZM1255.47 126.992C1255.53 127.313 1255.61 127.635 1255.73 127.953C1256.45 129.903 1258.04 131.273 1259.9 131.786L1249.1 187.992L1141.12 145.74C1141.16 145.305 1141.16 144.865 1141.1 144.421L1167.98 140.326L1255.47 126.992ZM1238.55 279.844C1238.88 278.647 1238.85 277.343 1238.4 276.09C1238.24 275.658 1238.03 275.256 1237.79 274.882L1305.77 217.721L1255.06 286.713L1238.55 279.844ZM1230.63 284.094C1231.91 284.521 1233.34 284.536 1234.71 284.035C1236.13 283.514 1237.24 282.53 1237.94 281.317L1254.09 288.036L1180 388.824L1230.63 284.094ZM1092.14 367.29C1092.35 366.211 1092.29 365.062 1091.88 363.953C1091.84 363.836 1091.79 363.727 1091.74 363.614L1222.5 285.2L1110.93 373.634L1092.14 367.29ZM1084.88 390.284L1086.36 372.27C1086.97 372.241 1087.59 372.12 1088.2 371.898C1089.76 371.325 1090.95 370.187 1091.63 368.802L1109.44 374.814L1087.89 391.897C1087.05 391.086 1086.01 390.528 1084.88 390.284ZM999.19 355.618L1079.88 366.086C1079.88 366.794 1080 367.513 1080.26 368.217C1081.02 370.286 1082.76 371.701 1084.77 372.133L1083.29 390.147C1082.67 390.177 1082.05 390.297 1081.45 390.52C1080.12 391.006 1079.06 391.903 1078.36 393.012L999.099 355.918L999.19 355.618ZM889.821 541.537L859.844 443.741C862.767 442.414 864.22 439.04 863.097 435.977C863.044 435.835 862.981 435.698 862.92 435.561L988.408 357.944C988.766 358.385 989.179 358.772 989.634 359.093L893.021 541.841C892.02 541.467 890.918 541.35 889.821 541.537ZM851.559 440.448C852.668 443.165 855.505 444.691 858.321 444.21L888.299 542.007C887.773 542.246 887.294 542.551 886.87 542.909L792.099 456.169L851.559 440.448ZM741.607 409.958C741.895 409.547 742.13 409.103 742.31 408.637L851.147 437.317C851.078 437.838 851.078 438.374 851.148 438.908L790.702 454.89L741.607 409.958ZM639.164 494.236L732.402 411.005C734.053 412.487 736.446 413.033 738.674 412.216C739.373 411.961 739.991 411.586 740.53 411.132L788.869 455.376L639.538 494.858C639.426 494.642 639.3 494.435 639.164 494.236ZM632.495 358.725C633.04 358.952 633.614 359.1 634.208 359.164L634.042 383.372L633.303 491.586C632.842 491.643 632.382 491.747 631.926 491.915C631.103 492.217 630.384 492.677 629.786 493.247L572.999 447.334L632.495 358.725ZM486.157 377.121C486.751 376.153 487.073 375.028 487.071 373.87L564.991 363.569L587.874 360.543L629.038 355.101L629.05 355.144C629.472 356.295 630.203 357.24 631.111 357.932L571.754 446.327L486.157 377.121ZM529.142 503.154L483.745 379.367C484.27 379.095 484.744 378.757 485.158 378.363L570.863 447.656L533.264 503.651C532.019 503.029 530.57 502.829 529.142 503.154ZM417.043 551.647L525.009 512.052L437.669 573.009L417.043 551.647ZM351.74 632.604L406.778 558.847C408.3 559.702 410.173 559.913 411.941 559.265C414.655 558.269 416.246 555.571 415.962 552.821L436.345 573.933L351.959 632.827L351.74 632.604ZM192.38 616.002L341.198 636.928C341.191 637.565 341.283 638.21 341.483 638.848L256.905 678.016L191.473 617.924C191.881 617.34 192.188 616.689 192.38 616.002ZM230.244 511.402C230.755 511.214 231.22 510.962 231.651 510.667L236.028 515.5L192.516 600.651L226.661 511.607C227.806 511.886 229.054 511.839 230.244 511.402ZM219.267 374.14C219.324 374.596 219.426 375.053 219.596 375.501C219.891 376.302 220.333 377.006 220.878 377.594L168.453 441.025C167.875 440.668 167.262 440.4 166.605 440.242L173.715 373.945L219.267 374.14ZM182.367 293.252C182.934 293.239 183.513 293.146 184.08 292.969L222.148 368.107C220.549 369.094 219.517 370.741 219.267 372.547L173.885 372.353L182.367 293.252ZM75.5451 370.572C75.4317 370.237 75.2729 369.922 75.1029 369.623L177.831 291.416C178.648 292.237 179.668 292.815 180.791 293.085L172.286 372.346L75.8741 371.933C75.8175 371.478 75.7152 371.021 75.5451 370.572ZM176.845 284.021C175.983 285.545 175.767 287.423 176.425 289.198C176.538 289.534 176.697 289.848 176.867 290.148L74.139 368.354L73.969 368.194L149.47 263.479L176.845 284.021ZM182.866 217.17C183.433 217.481 184.057 217.699 184.703 217.816L181.573 280.917C181.075 280.97 180.587 281.075 180.099 281.253C179.203 281.583 178.432 282.104 177.809 282.747L150.411 262.187L182.866 217.17ZM83.6984 209.515L179.646 212.344C179.702 212.852 179.804 213.36 179.997 213.861C180.337 214.8 180.893 215.6 181.573 216.239L149.13 261.23L82.9727 211.583C83.3243 210.944 83.5737 210.244 83.6984 209.515ZM191.428 209.15C190.09 206.24 186.733 204.795 183.671 205.915C181.494 206.715 180.043 208.612 179.691 210.751L87.9964 208.046L266.454 185.87L191.428 209.15ZM218.791 245.334L190.6 215.629C191.711 214.266 192.21 212.464 191.904 210.671L269.693 186.534C269.913 187.074 270.198 187.57 270.543 188.01L218.791 245.334ZM392.508 369.475C392.556 369.605 392.615 369.73 392.671 369.854L353.996 393.432L316.136 348.441C316.631 347.9 317.021 347.279 317.296 346.606L392.185 366.535C392.058 367.497 392.152 368.502 392.508 369.475ZM404.883 447.892C404.467 447.828 404.043 447.802 403.617 447.824L399.786 373.356C400.01 373.302 400.232 373.236 400.453 373.155C402.74 372.317 404.227 370.269 404.472 368.001L427.6 370.024L404.883 447.892ZM448.973 312.423L477.41 368.767C476.085 369.666 475.18 371.033 474.843 372.556L429.675 368.605L446.054 312.465C446.993 312.679 447.991 312.679 448.973 312.423ZM628.699 353.537L524.596 367.301L486.865 372.289C486.816 372.109 486.764 371.93 486.698 371.753C485.53 368.567 482.021 366.924 478.831 368.047L450.454 311.821C451.637 311.158 452.54 310.145 453.07 308.962L628.677 352.737C628.665 353.003 628.676 353.27 628.699 353.537ZM708.705 322.19C707.239 323.603 706.536 325.685 706.909 327.746L640.611 350.731C640.014 349.224 638.889 348.077 637.526 347.427L665.034 263.18L708.705 322.19ZM838.286 318.116C837.464 319.072 836.954 320.264 836.825 321.524L758.541 323.653L718.877 324.733L718.81 324.517C718.583 323.899 718.267 323.34 717.884 322.848L783.296 256.804L838.286 318.116ZM910.637 250.215L887.409 330.769L849.143 322.647C849.215 321.782 849.108 320.89 848.791 320.021C848.529 319.308 848.143 318.676 847.676 318.13L909.439 249.613C909.816 249.856 910.217 250.058 910.637 250.215ZM859.75 432.437L888.53 332.636L987.04 353.542C986.97 354.408 987.075 355.302 987.393 356.171C987.446 356.313 987.51 356.451 987.571 356.588L862.082 434.205C861.45 433.428 860.648 432.827 859.75 432.437ZM742.355 404.272C742.203 403.859 742.012 403.475 741.788 403.115L776.905 375.371L851.981 434.921C851.816 435.194 851.677 435.482 851.556 435.777L742.69 407.089C742.794 406.165 742.696 405.204 742.355 404.272ZM525.208 505.99L443.628 470.174L479.367 379.886C480.29 380.119 481.275 380.139 482.249 379.917L527.646 503.702C526.612 504.24 525.782 505.04 525.208 505.99ZM415.293 550.592C414.719 549.487 413.845 548.616 412.808 548.042L443.041 471.657L524.571 507.451C524.282 508.437 524.234 509.499 524.472 510.551L415.293 550.592ZM271.783 449.041C272.886 449.435 274.104 449.518 275.302 449.23L344.432 631.111L344.244 631.661C344.109 631.741 343.978 631.827 343.85 631.917L237.956 515.245L271.783 449.041ZM233.93 503.457C233.59 502.536 233.045 501.748 232.388 501.115L268.646 451.678L236.81 513.983L232.83 509.597C234.225 507.953 234.724 505.627 233.93 503.457ZM171.311 446.885L226.173 445.347L227.205 499.465C226.797 499.526 226.389 499.628 225.981 499.776C225.311 500.022 224.722 500.376 224.2 500.801L170.165 449.892C170.8 449.013 171.197 447.973 171.311 446.885ZM228.793 368.192C227.296 367.22 225.413 366.903 223.599 367.456L194.195 309.41L228.793 368.192ZM187.414 290.45L305.642 342.516C305.279 343.744 305.288 345.095 305.763 346.391C306.306 347.871 307.358 349.014 308.646 349.707L275.308 437.192C274.162 436.915 272.924 436.963 271.735 437.4L271.445 437.523L185.849 292.089C186.472 291.637 186.994 291.079 187.414 290.45ZM306.281 341.056L188.105 289.015C188.536 287.732 188.547 286.302 188.049 284.934C187.776 284.213 187.391 283.577 186.915 283.027L218.825 247.68L306.775 340.358C306.596 340.58 306.428 340.812 306.281 341.056ZM278.691 439.337C278.166 438.683 277.518 438.152 276.795 437.766L310.134 350.278C311.281 350.554 312.518 350.508 313.707 350.072C314.142 349.912 314.544 349.707 314.917 349.468L352.617 394.27L278.691 439.337ZM399.368 449.827C398.624 450.639 398.114 451.636 397.882 452.707L280.052 442.925C280.023 442.311 279.902 441.688 279.68 441.079C279.631 440.949 279.574 440.825 279.517 440.701L353.657 395.504L399.368 449.827ZM475.072 376.017C475.308 376.658 475.642 377.236 476.047 377.742L407.333 448.846C407.041 448.652 406.733 448.483 406.412 448.342L429.219 370.165L474.7 374.142C474.725 374.767 474.845 375.396 475.072 376.017ZM409.961 455.393C410.221 454.262 410.172 453.047 409.742 451.877C409.504 451.228 409.165 450.646 408.754 450.135L477.207 378.862C477.424 379.022 477.651 379.164 477.886 379.294L442.167 469.532L409.961 455.393ZM410.242 547.28L405.086 460.084C405.412 460.023 405.738 459.939 406.061 459.822C407.561 459.272 408.714 458.199 409.403 456.888L441.582 471.016L411.327 547.451C410.973 547.362 410.609 547.306 410.242 547.28ZM350.476 631.632C350.335 631.55 350.192 631.477 350.046 631.407L380.984 531.102L404.542 550.207C403.583 551.767 403.315 553.731 403.996 555.584C404.328 556.489 404.853 557.262 405.502 557.892L390.117 578.509L350.476 631.632ZM278.133 447.696L379.65 530.021L348.53 630.915C347.734 630.764 346.903 630.769 346.075 630.948L276.79 448.662C277.287 448.397 277.738 448.073 278.133 447.696ZM398.116 456.141C398.709 457.758 399.907 458.976 401.358 459.639L380.156 528.38L279.134 446.457C279.502 445.858 279.765 445.201 279.913 444.514L397.744 454.296C397.772 454.911 397.894 455.532 398.116 456.141ZM403.456 460.177L408.649 547.377C408.323 547.441 407.998 547.521 407.677 547.639C406.856 547.941 406.139 548.399 405.544 548.966L381.491 529.461L402.882 460.107C403.072 460.138 403.263 460.163 403.456 460.177ZM229.745 377.776C231.027 376.518 231.707 374.745 231.582 372.931L261.86 424.377L229.745 377.776ZM227.534 379.183C227.874 379.061 228.181 378.908 228.475 378.739L269.729 438.611C268.583 439.64 267.868 441.065 267.714 442.588L227.727 443.709L226.502 379.457C226.854 379.394 227.194 379.307 227.534 379.183ZM228.793 499.44L227.761 445.302L267.754 444.181C267.816 444.57 267.912 444.96 268.054 445.343C268.392 446.265 268.931 447.052 269.596 447.687L231.095 500.172C230.392 499.78 229.609 499.532 228.793 499.44ZM707.391 329.266C708.169 330.935 709.616 332.112 711.288 332.594L688.636 380.484L640.542 355.465C640.967 354.479 641.137 353.382 641.006 352.28L707.391 329.266ZM838.658 326.581C839.799 327.691 841.334 328.329 842.939 328.339L848.268 371.535L855.742 432.114C855.544 432.165 855.347 432.226 855.152 432.298C854.309 432.607 853.576 433.084 852.972 433.672L778.189 374.356L838.658 326.581ZM719.129 327.509C719.184 327.118 719.201 326.721 719.181 326.319L836.862 323.116C836.925 323.508 837.023 323.898 837.165 324.285C837.301 324.656 837.472 325.004 837.668 325.332L776.907 373.339L719.129 327.509ZM735.753 400.266L717.631 330.758C718.053 330.279 718.394 329.742 718.651 329.163L775.622 374.354L740.771 401.889C739.442 400.645 737.605 400.026 735.753 400.266ZM690.051 381.22L712.939 332.834C713.665 332.842 714.407 332.727 715.129 332.462C715.54 332.311 715.924 332.121 716.28 331.897L734.211 400.675C733.094 401.129 732.174 401.871 731.515 402.79L690.051 381.22ZM858.219 431.99C857.924 431.945 857.626 431.926 857.324 431.925L849.749 370.528L844.52 328.148C844.717 328.099 844.915 328.037 845.109 327.967C846.914 327.305 848.226 325.888 848.818 324.208L886.966 332.304L858.219 431.99ZM914.918 250.226C915.345 250.069 915.741 249.868 916.109 249.634L988.945 349.548C988.23 350.227 987.69 351.066 987.366 351.985L888.971 331.1L912.196 250.57C913.09 250.657 914.017 250.556 914.918 250.226ZM398.199 373.528L402.037 448.121L401.797 448.196C401.364 448.355 400.961 448.56 400.588 448.799L355.032 394.665L393.498 371.217C394.645 372.646 396.374 373.492 398.199 373.528ZM187.935 217.541C188.491 217.338 189.001 217.06 189.455 216.727L217.725 246.52L185.735 281.964C184.964 281.439 184.091 281.089 183.172 280.947L186.302 217.896C186.847 217.852 187.391 217.74 187.935 217.541ZM170.971 444.13C170.676 443.327 170.233 442.623 169.678 442.034L222.114 378.604C222.953 379.133 223.917 379.456 224.915 379.536L226.139 443.753L171.265 445.292C171.209 444.902 171.107 444.514 170.971 444.13ZM192.222 612.227C191.768 610.973 190.94 609.961 189.908 609.259L237.173 516.762L342.67 632.985C342.082 633.673 341.658 634.483 341.419 635.35L192.596 614.425C192.607 613.694 192.494 612.953 192.222 612.227ZM635.628 384.485L635.801 359.134C636.201 359.071 636.6 358.97 636.995 358.825C638.114 358.415 639.038 357.71 639.724 356.836L687.953 381.926L635.961 491.84C635.615 491.728 635.26 491.644 634.898 491.594L635.628 384.485ZM637.401 492.524L689.369 382.663L730.764 404.196C730.248 405.543 730.194 407.074 730.73 408.535C730.896 408.988 731.113 409.406 731.367 409.794L638.107 493.046C637.884 492.853 637.647 492.68 637.401 492.524ZM1080.6 363.205C1080.38 363.617 1080.21 364.052 1080.09 364.505L999.392 354.04C999.392 353.332 999.277 352.612 999.018 351.908C998.625 350.829 997.957 349.935 997.129 349.258L1016.57 318.092L1080.6 363.205ZM1226.77 280.354C1226.81 280.471 1226.86 280.581 1226.91 280.692L1179.64 309.043L1090.92 362.244C1090.2 361.335 1089.25 360.658 1088.19 360.27L1113.56 246.78L1226.45 277.385C1226.31 278.355 1226.41 279.371 1226.77 280.354ZM1234.52 272.348L1250.31 190.173L1304.76 211.48C1304.31 212.78 1304.29 214.239 1304.8 215.633C1304.88 215.84 1304.97 216.04 1305.06 216.234L1236.77 273.663C1236.12 273.068 1235.35 272.622 1234.52 272.348ZM1263.68 131.634C1263.94 131.537 1264.19 131.418 1264.44 131.29L1307.04 208.451C1306.42 208.891 1305.9 209.434 1305.48 210.05L1250.61 188.581L1261.48 132.007C1262.21 132.014 1262.95 131.9 1263.68 131.634ZM1140.76 147.311L1248.8 189.582L1232.96 272.044C1232.13 271.993 1231.28 272.105 1230.45 272.409C1230.16 272.516 1229.89 272.646 1229.63 272.789L1139.86 148.924C1140.24 148.432 1140.54 147.888 1140.76 147.311ZM1068.34 239.991L1078.95 319.002L1084.46 360.109C1084.29 360.156 1084.11 360.208 1083.94 360.272C1082.98 360.624 1082.16 361.193 1081.51 361.898L1017.42 316.737L1065.67 239.389C1066.5 239.783 1067.41 239.991 1068.34 239.991ZM1015.27 317.172L995.779 348.409C994.348 347.754 992.668 347.642 991.074 348.227C990.781 348.333 990.504 348.467 990.238 348.615L917.334 248.608L917.571 248.333L1015.27 317.172ZM829.154 215.506L841.442 316.155C841.243 316.207 841.044 316.268 840.845 316.341C840.348 316.523 839.893 316.768 839.476 317.055L784.418 255.669L825.452 214.24C826.509 215.044 827.808 215.495 829.154 215.506ZM697.56 166.468L711.646 320.613C711.385 320.672 711.124 320.742 710.867 320.836C710.557 320.95 710.268 321.092 709.989 321.246L665.641 261.322L696.649 166.362C696.948 166.417 697.253 166.458 697.56 166.468ZM656.049 252.634C656.357 252.52 656.646 252.378 656.925 252.223L663.87 261.609L637.682 341.814L653.616 253.006C654.42 253.045 655.245 252.928 656.049 252.634ZM275.89 190.362L309.442 338.447C308.888 338.65 308.384 338.928 307.929 339.259L219.891 246.494L271.682 189.126C272.872 190.025 274.367 190.478 275.89 190.362ZM309.503 723.547C308.807 723.802 308.192 724.172 307.655 724.623L258.175 679.182L341.125 640.77L312.867 723.299C311.78 723.076 310.622 723.136 309.503 723.547ZM1112.73 374.242L1228.27 282.656C1228.56 282.934 1228.86 283.181 1229.2 283.398L1177.47 390.402C1176.18 389.974 1174.75 389.958 1173.38 390.46C1171.82 391.034 1170.63 392.171 1169.96 393.556L1112.73 374.242ZM1351.65 165.418L1314.06 208.361C1312.47 207.3 1310.41 206.98 1308.48 207.688L1308.45 207.703L1265.75 130.366C1266.19 129.958 1266.57 129.489 1266.87 128.978L1351.65 165.418ZM454.439 220.409L399.798 361.329C398.642 361.046 397.391 361.089 396.191 361.53C395.973 361.609 395.766 361.702 395.563 361.802L357.299 304.787L453.335 219.647C453.675 219.942 454.047 220.195 454.439 220.409ZM269.758 181.685C269.449 182.386 269.264 183.143 269.229 183.918L83.5738 206.989C83.5284 206.793 83.4604 206.599 83.3924 206.405L83.3129 206.214L199.377 140.631L269.758 181.685ZM57.8322 62.1581C57.991 62.1128 58.1609 62.0652 58.3198 62.0062C59.4651 61.5877 60.3949 60.8665 61.0867 59.9718L197.778 139.702L82.5306 204.823C81.3513 203.246 79.48 202.331 77.5183 202.351L57.8322 62.1581ZM50.3818 58.3252C51.3003 60.8528 53.7044 62.4054 56.2559 62.3781L75.942 202.572C75.7719 202.618 75.6133 202.665 75.4545 202.724C72.234 203.901 70.5897 207.459 71.769 210.669C72.5515 212.81 74.3997 214.249 76.4863 214.626L69.2287 366.539C68.6844 366.583 68.1402 366.694 67.6073 366.891C64.398 368.07 62.7424 371.625 63.9217 374.835C65.101 378.045 68.6618 379.694 71.8711 378.517C72.7442 378.196 73.4926 377.697 74.1049 377.08L159.812 443.143C158.916 444.681 158.678 446.592 159.347 448.394C160.515 451.603 164.076 453.252 167.285 452.073C167.954 451.828 168.555 451.475 169.077 451.047L223.1 501.958C221.932 503.57 221.569 505.713 222.306 507.721C222.839 509.198 223.894 510.338 225.175 511.031L187.867 608.341C186.71 608.063 185.474 608.108 184.284 608.546C181.074 609.723 179.419 613.281 180.598 616.491C181.585 619.172 184.227 620.757 186.937 620.522L203.584 696.792L203.539 696.805C200.33 697.982 198.685 701.539 199.865 704.749C201.044 707.96 204.594 709.607 207.803 708.43C209.538 707.798 210.796 706.475 211.431 704.891L305.49 728.63C305.378 729.568 305.473 730.543 305.822 731.491C306.999 734.702 310.556 736.349 313.766 735.171C316.977 733.994 318.624 730.438 317.447 727.227C317.402 727.105 317.346 726.988 317.295 726.871L485.763 625.122L486.188 625.56L486.539 624.651L489.282 622.994L487.103 623.197L529.028 515.2C530.184 515.486 531.436 515.442 532.639 515C535.107 514.095 536.645 511.783 536.692 509.305L628.045 499.194C628.1 499.417 628.166 499.639 628.245 499.859C629.424 503.069 632.981 504.718 636.19 503.541C639.114 502.467 640.735 499.42 640.111 496.458L884.689 547.172C884.624 548.028 884.73 548.911 885.046 549.769C886.223 552.979 889.78 554.627 892.989 553.45C896.199 552.273 897.847 548.716 896.67 545.505C896.221 544.279 895.421 543.284 894.43 542.584L991.043 359.836C992.38 360.335 993.893 360.382 995.338 359.853C996.665 359.365 997.72 358.468 998.424 357.36L1077.68 394.454C1077.28 395.72 1077.27 397.121 1077.77 398.464C1078.94 401.674 1082.5 403.323 1085.71 402.146C1087.95 401.323 1089.43 399.339 1089.72 397.126L1169.38 397.074C1169.44 397.519 1169.54 397.965 1169.7 398.405C1170.88 401.615 1174.44 403.263 1177.65 402.086C1180.86 400.909 1182.51 397.351 1181.33 394.141C1181.24 393.897 1181.13 393.665 1181.01 393.439L1298.93 311.896C1300.58 313.716 1303.22 314.459 1305.66 313.563C1308.87 312.386 1310.52 308.829 1309.34 305.618C1308.57 303.528 1306.8 302.107 1304.76 301.691L1310.67 219.687C1311.36 219.681 1312.06 219.565 1312.75 219.313C1315.7 218.229 1317.33 215.126 1316.65 212.135L1399.83 189.611C1399.87 189.736 1399.9 189.86 1399.95 189.985C1401.13 193.195 1404.68 194.843 1407.89 193.666C1411.1 192.488 1412.75 188.93 1411.57 185.721C1410.4 182.511 1406.84 180.863 1403.63 182.04C1403.44 182.109 1403.26 182.189 1403.08 182.274L1381.77 141.338C1384.02 139.768 1385.03 136.833 1384.04 134.134C1382.86 130.923 1379.31 129.277 1376.1 130.454C1374.04 131.207 1372.63 132.937 1372.19 134.926L1267.73 125.575C1267.7 124.947 1267.58 124.312 1267.36 123.69C1266.18 120.48 1262.62 118.832 1259.41 120.009C1257.05 120.876 1255.54 123.035 1255.37 125.395L1237.86 128.062L1140.71 142.869C1139.48 139.757 1135.99 138.173 1132.83 139.333C1129.62 140.51 1127.97 144.067 1129.15 147.278C1129.49 148.21 1130.04 149.006 1130.71 149.643L1071.31 228.376C1069.8 227.552 1067.95 227.355 1066.21 227.993L1066.2 228.001L1039.68 177.517L917.86 240.874C916.292 238.622 913.353 237.61 910.654 238.6C909.244 239.118 908.136 240.095 907.434 241.302L835.167 210.961C835.498 209.759 835.476 208.448 835.015 207.189C833.838 203.978 830.28 202.33 827.07 203.507C825.574 204.056 824.425 205.124 823.735 206.43L703.823 161.683C704.088 160.548 704.039 159.328 703.608 158.151C702.431 154.941 698.873 153.294 695.663 154.471C692.453 155.648 690.805 159.205 691.982 162.415C692.445 163.676 693.278 164.691 694.31 165.393L655.982 240.984C654.67 240.519 653.194 240.491 651.786 241.008C648.973 242.039 647.361 244.894 647.794 247.745L453.017 303.532L453.236 304.298C452.498 302.283 450.821 300.886 448.881 300.413L457.526 221.163C458.194 221.149 458.87 221.034 459.531 220.791C462.741 219.614 464.389 216.057 463.212 212.846C462.035 209.636 458.477 207.988 455.267 209.165C453.378 209.858 452.036 211.378 451.486 213.163L281.601 184.243C281.606 183.518 281.492 182.781 281.227 182.06C280.357 179.685 278.179 178.168 275.806 178.016L272.74 105.176C272.989 105.119 273.237 105.05 273.482 104.961C276.693 103.784 278.341 100.226 277.164 97.0159C275.987 93.8056 272.43 92.1579 269.22 93.3349C267.505 93.9643 266.243 95.274 265.611 96.8457L62.3681 56.6027C62.4247 55.7647 62.3113 54.9016 62.0052 54.0614C60.8259 50.851 57.2651 49.2034 54.0558 50.3805C50.8466 51.5575 49.2024 55.1148 50.3818 58.3252Z" fill="#313840"/>
</g>
<defs>
<filter id="filter0_d" x="0" y="0" width="1461.95" height="785.552" filterUnits="userSpaceOnUse" color-interpolation-filters="sRGB">
<feFlood flood-opacity="0" result="BackgroundImageFix"/>
<feColorMatrix in="SourceAlpha" type="matrix" values="0 0 0 0 0 0 0 0 0 0 0 0 0 0 0 0 0 0 127 0"/>
<feOffset/>
<feGaussianBlur stdDeviation="25"/>
<feColorMatrix type="matrix" values="0 0 0 0 0 0 0 0 0 0 0 0 0 0 0 0 0 0 0.25 0"/>
<feBlend mode="normal" in2="BackgroundImageFix" result="effect1_dropShadow"/>
<feBlend mode="normal" in="SourceGraphic" in2="effect1_dropShadow" result="shape"/>
</filter>
</defs>
</svg>
